<svg width="62" height="62" viewBox="0 0 62 62" fill="none" xmlns="http://www.w3.org/2000/svg">
<rect width="62" height="62" rx="16" fill="white"/>
<path d="M31.0206 14.9102C27.7106 14.9102 25.0206 17.6002 25.0206 20.9102V23.8002C25.0206 24.4102 24.7606 25.3402 24.4506 25.8602L23.3006 27.7702C22.5906 28.9502 23.0806 30.2602 24.3806 30.7002C28.6906 32.1402 33.3406 32.1402 37.6506 30.7002C38.8606 30.3002 39.3906 28.8702 38.7306 27.7702L37.5806 25.8602C37.2806 25.3402 37.0206 24.4102 37.0206 23.8002V20.9102C37.0206 17.6102 34.3206 14.9102 31.0206 14.9102Z" stroke="#999999" stroke-width="1.5" stroke-miterlimit="10" stroke-linecap="round"/>
<path d="M32.87 15.2C32.56 15.11 32.24 15.04 31.91 15C30.95 14.88 30.03 14.95 29.17 15.2C29.46 14.46 30.18 13.94 31.02 13.94C31.86 13.94 32.58 14.46 32.87 15.2Z" stroke="#999999" stroke-width="1.5" stroke-miterlimit="10" stroke-linecap="round" stroke-linejoin="round"/>
<path d="M34.0195 31.0601C34.0195 32.7101 32.6695 34.0601 31.0195 34.0601C30.1995 34.0601 29.4395 33.7201 28.8995 33.1801C28.3595 32.6401 28.0195 31.8801 28.0195 31.0601" stroke="#999999" stroke-width="1.5" stroke-miterlimit="10"/>
<path d="M29.7578 41.6641V43.125H30.7734V43.7422H29.7578V45.2031H29.0156V41.6641H29.7578ZM24.3672 43.4688C24.3594 42.543 25.1445 41.9102 26.2031 41.9062C27.2656 41.9102 28.0391 42.543 28.0391 43.4688C28.0391 44.3867 27.2656 45.0312 26.2031 45.0312C25.1445 45.0312 24.3594 44.3867 24.3672 43.4688ZM25.0859 43.4688C25.082 44.0391 25.5586 44.4375 26.2031 44.4375C26.8477 44.4375 27.3203 44.0391 27.3203 43.4688C27.3203 42.8984 26.8477 42.5117 26.2031 42.5156C25.5586 42.5117 25.082 42.8984 25.0859 43.4688ZM25.2344 46.1016V45.5234H29.7578V47.2969H25.9766V47.9844H30V48.5781H25.25V46.7422H29.0234V46.1016H25.2344ZM36.9766 41.6719V45.8203H36.2344V41.6719H36.9766ZM31.5234 42.6797V42.0859H34.7422V44.0547H32.2656V44.8984C33.4922 44.8984 34.3867 44.8633 35.4531 44.6875L35.5469 45.2969C34.4023 45.4727 33.4492 45.5117 32.125 45.5078H31.5391V43.4766H34.0078V42.6797H31.5234ZM32.375 48.5781V46.1719H36.9766V48.5781H32.375ZM33.1094 47.9766H36.25V46.7656H33.1094V47.9766Z" fill="#999999"/>
</svg>
