<svg width="24" height="24" viewBox="0 0 24 24" fill="none" xmlns="http://www.w3.org/2000/svg">
<path d="M9 22H15C20 22 22 20 22 15V9C22 4 20 2 15 2H9C4 2 2 4 2 9V15C2 20 4 22 9 22Z" stroke="current" stroke-linecap="round" stroke-linejoin="round"/>
<path d="M7 8.75C8 7.75 9.63 7.75 10.64 8.75" stroke="current" stroke-miterlimit="10" stroke-linecap="round" stroke-linejoin="round"/>
<path d="M13.3594 8.75C14.3594 7.75 15.9894 7.75 16.9994 8.75" stroke="current" stroke-miterlimit="10" stroke-linecap="round" stroke-linejoin="round"/>
<path d="M8.4 12.3H15.6C16.1 12.3 16.5 12.7 16.5 13.2C16.5 15.69 14.49 17.7 12 17.7C9.51 17.7 7.5 15.69 7.5 13.2C7.5 12.7 7.9 12.3 8.4 12.3Z" stroke="current" stroke-miterlimit="10" stroke-linecap="round" stroke-linejoin="round"/>
</svg>
