<svg width="24" height="24" viewBox="0 0 24 24" fill="none" xmlns="http://www.w3.org/2000/svg">
<path d="M9 22H15C20 22 22 20 22 15V9C22 4 20 2 15 2H9C4 2 2 4 2 9V15C2 20 4 22 9 22Z" stroke="current" stroke-linecap="round" stroke-linejoin="round"/>
<path d="M7 8.25C8 9.25 9.63 9.25 10.64 8.25" stroke="current" stroke-miterlimit="10" stroke-linecap="round" stroke-linejoin="round"/>
<path d="M13.3594 8.25C14.3594 9.25 15.9894 9.25 16.9994 8.25" stroke="current" stroke-miterlimit="10" stroke-linecap="round" stroke-linejoin="round"/>
<path d="M8.4 18.4H15.6C16.1 18.4 16.5 18 16.5 17.5C16.5 15.01 14.49 13 12 13C9.51 13 7.5 15.01 7.5 17.5C7.5 18 7.9 18.4 8.4 18.4Z" stroke="current" stroke-miterlimit="10" stroke-linecap="round" stroke-linejoin="round"/>
</svg>
