<svg width="28" height="28" viewBox="0 0 28 28" fill="none" xmlns="http://www.w3.org/2000/svg">
<path fill-rule="evenodd" clip-rule="evenodd" d="M23.3365 9.91665C21.0499 -0.186684 6.08155 -0.198351 3.78322 9.90498C2.44155 15.8316 6.12822 20.86 9.34822 23.9633C9.50357 24.1125 9.6648 24.2714 9.83114 24.4354C11.0491 25.636 12.5406 27.1062 14 27C15.0351 26.9247 16.054 25.8044 16.9477 24.8219C17.2323 24.509 17.5042 24.2101 17.7599 23.9633C20.9915 20.86 24.6782 15.8433 23.3365 9.91665ZM18.6667 12.8333C18.6667 15.4107 16.5773 17.5 14 17.5C11.4227 17.5 9.33333 15.4107 9.33333 12.8333C9.33333 10.256 11.4227 8.16667 14 8.16667C16.5773 8.16667 18.6667 10.256 18.6667 12.8333Z" fill="#1E1E1E"/>
<path d="M3.78322 9.90498L3.0519 9.73862L3.05172 9.73939L3.78322 9.90498ZM23.3365 9.91665L22.605 10.0822L22.6051 10.0822L23.3365 9.91665ZM9.34822 23.9633L8.82776 24.5033L8.82871 24.5042L9.34822 23.9633ZM9.83114 24.4354L9.30464 24.9695V24.9695L9.83114 24.4354ZM14 27L14.0544 27.748L14 27ZM16.9477 24.8219L17.5025 25.3266V25.3266L16.9477 24.8219ZM17.7599 23.9633L17.2404 23.4224L17.239 23.4237L17.7599 23.9633ZM4.51453 10.0713C5.57177 5.42378 9.53043 3.08059 13.5637 3.08332C17.5972 3.08604 21.5532 5.43469 22.605 10.0822L24.068 9.75109C22.8332 4.29528 18.1618 1.58642 13.5648 1.58332C8.96767 1.58021 4.29299 4.28285 3.0519 9.73862L4.51453 10.0713ZM9.86867 23.4233C6.68643 20.3563 3.26574 15.5877 4.51471 10.0706L3.05172 9.73939C1.61735 16.0756 5.57001 21.3636 8.82776 24.5033L9.86867 23.4233ZM10.3576 23.9013C10.192 23.738 10.0272 23.5756 9.86773 23.4224L8.82871 24.5042C8.9799 24.6495 9.13756 24.8049 9.30464 24.9695L10.3576 23.9013ZM13.9456 26.252C13.4796 26.2859 12.9216 26.0683 12.2604 25.597C11.6102 25.1336 10.9756 24.5104 10.3576 23.9013L9.30464 24.9695C9.90462 25.561 10.6247 26.2732 11.3897 26.8185C12.1436 27.3559 13.0611 27.8203 14.0544 27.748L13.9456 26.252ZM16.3929 24.3173C15.9381 24.8172 15.4956 25.3017 15.0474 25.6745C14.5878 26.0566 14.2252 26.2316 13.9456 26.252L14.0544 27.748C14.8099 27.693 15.4743 27.2703 16.0064 26.8278C16.5498 26.376 17.0636 25.8091 17.5025 25.3266L16.3929 24.3173ZM17.239 23.4237C16.9623 23.6908 16.673 24.0093 16.3929 24.3173L17.5025 25.3266C17.7916 25.0087 18.0461 24.7294 18.2807 24.503L17.239 23.4237ZM22.6051 10.0822C23.8539 15.5987 20.434 20.3556 17.2404 23.4224L18.2794 24.5043C21.5491 21.3644 25.5026 16.0879 24.068 9.75105L22.6051 10.0822ZM14 18.25C16.9915 18.25 19.4167 15.8249 19.4167 12.8333H17.9167C17.9167 14.9964 16.1631 16.75 14 16.75V18.25ZM8.58333 12.8333C8.58333 15.8249 11.0085 18.25 14 18.25V16.75C11.8369 16.75 10.0833 14.9964 10.0833 12.8333H8.58333ZM14 7.41667C11.0085 7.41667 8.58333 9.84179 8.58333 12.8333H10.0833C10.0833 10.6702 11.8369 8.91667 14 8.91667V7.41667ZM19.4167 12.8333C19.4167 9.84179 16.9915 7.41667 14 7.41667V8.91667C16.1631 8.91667 17.9167 10.6702 17.9167 12.8333H19.4167Z" fill="#1E1E1E"/>
</svg>
