<svg width="62" height="62" viewBox="0 0 62 62" fill="none" xmlns="http://www.w3.org/2000/svg">
<rect width="62" height="62" rx="16" fill="white"/>
<path d="M32 24C34.7614 24 37 21.7614 37 19C37 16.2386 34.7614 14 32 14C29.2386 14 27 16.2386 27 19C27 21.7614 29.2386 24 32 24Z" stroke="#999999" stroke-width="1.5" stroke-linecap="round" stroke-linejoin="round"/>
<path d="M40.59 34C40.59 30.13 36.74 27 32 27C27.26 27 23.41 30.13 23.41 34" stroke="#999999" stroke-width="1.5" stroke-linecap="round" stroke-linejoin="round"/>
<path d="M17.7969 42.3594V46.9062H14.5234V42.3594H17.7969ZM15.25 46.3047H17.0625V42.9453H15.25V46.3047ZM18.9688 48.6641V41.6641H19.7109V44.4062H20.8359V45.0312H19.7109V48.6641H18.9688ZM26.9688 41.6641V48.6797H26.2266V41.6641H26.9688ZM21.4141 44.6406C21.4141 43.1445 22.168 42.1914 23.2266 42.1875C24.2656 42.1914 25.0312 43.1445 25.0312 44.6406C25.0312 46.1523 24.2656 47.1055 23.2266 47.1016C22.168 47.1055 21.4141 46.1523 21.4141 44.6406ZM22.1328 44.6406C22.1289 45.7539 22.5742 46.4375 23.2266 46.4375C23.8672 46.4375 24.3125 45.7539 24.3125 44.6406C24.3125 43.543 23.8672 42.8555 23.2266 42.8516C22.5742 42.8555 22.1289 43.543 22.1328 44.6406ZM34.1406 41.6641V48.6641H33.4297V41.6641H34.1406ZM28.0078 46.3516C28.2109 46.3516 28.4453 46.3516 28.6953 46.3477V43.1328H28.1562V42.5234H31.3672V43.1328H30.8281V46.2617C31.0664 46.2422 31.2969 46.2148 31.5078 46.1875L31.5625 46.7266C30.4531 46.9453 29 46.9766 28.0938 46.9766L28.0078 46.3516ZM29.3672 46.3359C29.6211 46.332 29.8828 46.3203 30.1406 46.3086V43.1328H29.3672V46.3359ZM31.1797 44.9531V44.2891H32.0547V41.8203H32.7578V48.3047H32.0547V44.9531H31.1797ZM40.7969 41.6641V48.6797H40.0547V41.6641H40.7969ZM35.2422 44.6406C35.2422 43.1445 35.9961 42.1914 37.0547 42.1875C38.0938 42.1914 38.8594 43.1445 38.8594 44.6406C38.8594 46.1523 38.0938 47.1055 37.0547 47.1016C35.9961 47.1055 35.2422 46.1523 35.2422 44.6406ZM35.9609 44.6406C35.957 45.7539 36.4023 46.4375 37.0547 46.4375C37.6953 46.4375 38.1406 45.7539 38.1406 44.6406C38.1406 43.543 37.6953 42.8555 37.0547 42.8516C36.4023 42.8555 35.957 43.543 35.9609 44.6406ZM44.4922 43.7266C44.4883 44.8984 45.2578 46.1094 46.3359 46.5703L45.9297 47.1484C45.1055 46.7852 44.4492 46.0117 44.125 45.0781C43.8008 46.0781 43.1445 46.9297 42.3281 47.3281L41.8984 46.7422C42.9531 46.2461 43.7344 44.9336 43.7422 43.7266V42.9844H42.1406V42.3672H46.0859V42.9844H44.4922V43.7266ZM46.9688 48.6641V41.6641H47.7109V48.6641H46.9688Z" fill="#999999"/>
</svg>
