<svg width="220" height="35" viewBox="0 0 220 35" fill="none" xmlns="http://www.w3.org/2000/svg">
<g clip-path="url(#clip0_4_24)">
<path d="M24.8306 6.20917H15.9239V34.4542H9.08895V6.20917H0V0.358459H24.8306V6.20917Z" fill="black"/>
<path d="M29.7335 0.358459H44.5334C50.7426 0.358459 55.1048 4.72067 55.1048 11.5556C55.1048 15.6019 54.0234 19.0224 48.5797 22.0784L56.7209 34.4481H48.5372L41.2041 23.2935H36.5684V34.4481H29.7335V0.358459ZM48.2638 11.829C48.2638 8.09257 46.2406 6.20917 43.0449 6.20917H36.5684V17.4549H43.0449C46.2406 17.4549 48.2638 15.5654 48.2638 11.8351V11.829Z" fill="black"/>
<path d="M88.3864 17.4063C88.3864 7.15087 95.3125 -0.042524 105.209 4.46885e-06C109.888 4.46885e-06 114.068 1.98062 117.081 5.0852L112.719 9.897C111.145 7.55793 108.223 5.93577 105.161 5.93577C99.0428 5.89324 95.2214 10.298 95.2214 17.4063C95.2214 24.5147 99.0428 28.8769 105.161 28.8769C108.758 28.8769 111.097 26.9874 112.403 25.189L117.081 29.7335C114.068 32.8381 110.422 34.9038 105.209 34.8187C95.3125 34.8187 88.3864 27.6192 88.3864 17.4124V17.4063Z" fill="black"/>
<path d="M137.689 0C147.805 0 154.962 7.19947 154.962 17.4063C154.962 27.6132 147.811 34.8126 137.689 34.8126C127.567 34.8126 120.416 27.6132 120.416 17.4063C120.416 7.19947 127.567 0 137.689 0ZM148.127 17.4063C148.127 10.3466 144.123 5.93577 137.689 5.93577C131.255 5.93577 127.251 10.3466 127.251 17.4063C127.251 24.466 131.255 28.8769 137.689 28.8769C144.123 28.8769 148.127 24.466 148.127 17.4063Z" fill="black"/>
<path d="M160.041 0.358459H174.841C181.05 0.358459 185.412 4.72067 185.412 11.5556C185.412 15.6019 184.331 19.0224 178.887 22.0784L187.028 34.4481H178.845L171.511 23.2935H166.876V34.4481H160.041V0.358459ZM178.571 11.829C178.571 8.09257 176.548 6.20917 173.352 6.20917H166.876V17.4549H173.352C176.548 17.4549 178.571 15.5654 178.571 11.8351V11.829Z" fill="black"/>
<path d="M191.98 0.358459H203.001C212.989 0.358459 220.006 7.37566 220.006 17.4063C220.006 27.437 212.989 34.4542 203.001 34.4542H191.98V0.358459ZM213.165 17.4063C213.165 10.5714 209.204 6.29422 202.861 6.29422L198.815 6.33675V28.4759L202.861 28.5184C209.204 28.5184 213.165 24.2473 213.165 17.4063Z" fill="black"/>
<path d="M61.1317 34.4542H84.3827V28.6096H71.6363H67.9667H61.1317V34.4542Z" fill="black"/>
<path d="M69.6678 6.20917H84.3827V0.358459H61.1317V6.20917H67.9667H69.6678Z" fill="black"/>
<path d="M61.1317 19.8365H67.9667H75.1661H83.8237V13.9919H70.7675H67.9667H61.1317V19.8365Z" fill="black"/>
</g>
<defs>
<clipPath id="clip0_4_24">
<rect width="220" height="34.8187" fill="white"/>
</clipPath>
</defs>
</svg>
