<svg width="24" height="25" viewBox="0 0 24 25" fill="none" xmlns="http://www.w3.org/2000/svg">
<path d="M13.8089 9.64745C14.2413 12.2417 14.1692 15.0522 14.0791 16.1331L18.4029 17.7545C20.5647 15.0522 22.4565 10.1879 19.7541 6.94508C17.0518 3.70223 13.2684 6.4046 13.8089 9.64745Z" stroke="current" stroke-width="1.5" stroke-linejoin="round"/>
<path d="M13.1943 18.4902L17.6793 19.9231L17.0933 21.7574C16.6977 22.9959 15.3729 23.6791 14.1344 23.2834V23.2834C12.8959 22.8878 12.2127 21.563 12.6083 20.3245L13.1943 18.4902Z" stroke="current" stroke-width="1.5" stroke-linejoin="round"/>
<path d="M10.5973 5.34623C10.0015 7.90792 9.89543 10.7173 9.91688 11.8018L5.49917 13.1461C3.51275 10.3123 1.93284 5.338 4.83514 2.2728C7.73744 -0.7924 11.342 2.14413 10.5973 5.34623Z" stroke="current" stroke-width="1.5" stroke-linejoin="round"/>
<path d="M10.6211 14.087L6.05437 15.233L6.55397 17.2239C6.87041 18.485 8.14923 19.2508 9.41029 18.9343V18.9343C10.6714 18.6179 11.4371 17.3391 11.1207 16.078L10.6211 14.087Z" stroke="current" stroke-width="1.5" stroke-linejoin="round"/>
</svg>
