<svg width="76" height="99" viewBox="0 0 76 99" fill="none" xmlns="http://www.w3.org/2000/svg">
<ellipse cx="36" cy="93" rx="34" ry="6" fill="#E9E9E9"/>
<path d="M11.8801 89H26.0241L27.1898 83.56L11.8801 89Z" fill="#1E1E1E"/>
<path d="M29.2881 73.768L27.1898 83.56M27.1898 83.56L26.0241 89H11.8801L27.1898 83.56Z" stroke="#1E1E1E" stroke-width="2" stroke-linejoin="round"/>
<path d="M60.296 89H46.152L44.9863 83.56L60.296 89Z" fill="#1E1E1E"/>
<path d="M42.888 73.768L44.9863 83.56M44.9863 83.56L46.152 89H60.296L44.9863 83.56Z" stroke="#1E1E1E" stroke-width="2" stroke-linejoin="round"/>
<circle cx="36.36" cy="48.744" r="27.744" fill="white" stroke="#1E1E1E" stroke-width="2"/>
<circle cx="36.9041" cy="50.376" r="2.176" fill="#1E1E1E"/>
<path d="M9.704 50.376L1 39.496" stroke="#1E1E1E" stroke-width="2" stroke-linecap="round" stroke-linejoin="round"/>
<path d="M63.016 50.376L71.72 39.496" stroke="#1E1E1E" stroke-width="2" stroke-linecap="round" stroke-linejoin="round"/>
<path d="M47.7838 37.32L44.5198 39.496L47.7838 41.672" stroke="#1E1E1E" stroke-width="2" stroke-linecap="round" stroke-linejoin="round"/>
<path d="M24.9359 37.32L28.1999 39.496L24.9359 41.672" stroke="#1E1E1E" stroke-width="2" stroke-linecap="round" stroke-linejoin="round"/>
<path d="M60 11L62 1" stroke="#1E1E1E" stroke-width="2" stroke-linecap="round" stroke-linejoin="round"/>
<path d="M68 16L75 6" stroke="#1E1E1E" stroke-width="2" stroke-linecap="round" stroke-linejoin="round"/>
</svg>
